<?xml version="1.0" encoding="UTF-8" standalone="no"?>
<svg
   xmlns:dc="http://purl.org/dc/elements/1.1/"
   xmlns:cc="http://creativecommons.org/ns#"
   xmlns:rdf="http://www.w3.org/1999/02/22-rdf-syntax-ns#"
   xmlns:svg="http://www.w3.org/2000/svg"
   xmlns="http://www.w3.org/2000/svg"
   xmlns:sodipodi="http://sodipodi.sourceforge.net/DTD/sodipodi-0.dtd"
   xmlns:inkscape="http://www.inkscape.org/namespaces/inkscape"
   sodipodi:docname="creality_logo.svg"
   inkscape:version="1.0 (4035a4fb49, 2020-05-01)"
   id="svg1009"
   version="1.1"
   viewBox="0 0 99.184914 12.41021"
   height="12.41021mm"
   width="99.184914mm">
  <defs
     id="defs1003" />
  <sodipodi:namedview
     inkscape:window-maximized="1"
     inkscape:window-y="-8"
     inkscape:window-x="-8"
     inkscape:window-height="1377"
     inkscape:window-width="3440"
     fit-margin-bottom="0"
     fit-margin-right="0"
     fit-margin-left="0"
     fit-margin-top="0"
     showgrid="false"
     inkscape:document-rotation="0"
     inkscape:current-layer="g1600"
     inkscape:document-units="mm"
     inkscape:cy="219.0606"
     inkscape:cx="664.96733"
     inkscape:zoom="1"
     inkscape:pageshadow="2"
     inkscape:pageopacity="0.0"
     borderopacity="1.0"
     bordercolor="#666666"
     pagecolor="#ffffff"
     id="base" />
  <metadata
     id="metadata1006">
    <rdf:RDF>
      <cc:Work
         rdf:about="">
        <dc:format>image/svg+xml</dc:format>
        <dc:type
           rdf:resource="http://purl.org/dc/dcmitype/StillImage" />
        <dc:title></dc:title>
      </cc:Work>
    </rdf:RDF>
  </metadata>
  <g
     transform="translate(-50.736558,-83.769427)"
     id="layer1"
     inkscape:groupmode="layer"
     inkscape:label="Layer 1">
    <g
       id="g1600">
      <path
         id="path1602"
         d="m 60.347056,96.164037 -3.704167,-0.0107 -0.566514,-0.073 -0.566515,-0.073 -0.687703,-0.25098 -0.687703,-0.25098 -0.434466,-0.26733 -0.434466,-0.26733 -0.45495,-0.39278 -0.454951,-0.39278 -0.32188,-0.42632 -0.32188,-0.42633 -0.258345,-0.46268 -0.258346,-0.46269 -0.184346,-0.55033 -0.184346,-0.55033 -0.04496,-1.02594 -0.04496,-1.02593 0.141818,-0.63744 0.141817,-0.63745 0.32267,-0.66495 0.322671,-0.66496 0.367989,-0.46567 0.367989,-0.46566 0.370932,-0.33867 0.370931,-0.33867 0.514792,-0.3166 0.514791,-0.31661 0.472965,-0.17806 0.472964,-0.17807 0.550334,-0.11769 0.550333,-0.11769 3.915833,-0.001 3.915834,-10e-4 v 1.18533 1.18533 h -3.843413 -3.843415 l -0.55287,0.17077 -0.55287,0.17076 -0.41232,0.27747 -0.412321,0.27747 -0.281975,0.2926 -0.281975,0.2926 -0.197942,0.31084 -0.197941,0.31083 -0.181018,0.53583 -0.181017,0.53583 0.03391,0.80434 0.03391,0.80433 0.285372,0.59267 0.285373,0.59266 0.47242,0.47242 0.472419,0.47242 0.550333,0.26132 0.550334,0.26132 0.502383,0.0918 0.502383,0.0918 h 3.625117 3.625117 v 1.18534 1.18533 z m 6.477,-0.008 -1.164166,0.0236 v -6.18306 -6.18305 h 4.907491 4.90749 l 0.49001,0.18088 0.490009,0.18089 0.438356,0.30774 0.438357,0.30774 0.268691,0.33687 0.268689,0.33688 0.191527,0.381 0.191527,0.381 0.107576,0.45646 0.107575,0.45647 -0.04766,0.63022 -0.04766,0.63023 -0.290724,0.61218 -0.290725,0.61219 -0.419976,0.41997 -0.419975,0.41998 -0.586451,0.28956 -0.586452,0.28956 -0.762,0.0314 -0.762001,0.0314 -0.114221,0.0373 -0.114222,0.0373 2.415799,2.42957 2.415799,2.42956 -0.04174,0.0675 -0.04174,0.0675 h -1.542224 -1.542224 l -3.659322,-3.66183 -3.659323,-3.66184 1.671709,-0.052 1.67171,-0.052 1.744313,-0.0115 1.744312,-0.0115 0.279085,-0.1905 0.279085,-0.1905 0.156769,-0.29501 0.15677,-0.29501 v -0.28486 -0.28486 l -0.139101,-0.29313 -0.1391,-0.29313 -0.303887,-0.2065 -0.303887,-0.2065 H 71.609913 68.03191 l -0.02184,4.97417 -0.02184,4.97417 -1.164167,0.0236 z m 22.352001,0.008 -3.661833,-0.0103 -0.504705,-0.0735 -0.504705,-0.0735 -0.468962,-0.13541 -0.468962,-0.13541 -0.561142,-0.29378 -0.561143,-0.29378 -0.564626,-0.46573 -0.564627,-0.46574 -0.386198,-0.52405 -0.386198,-0.52406 -0.242724,-0.48018 -0.242725,-0.48017 -0.171475,-0.61879 -0.171475,-0.61879 0.0013,-0.97537 0.0013,-0.97537 0.126378,-0.53608 0.126378,-0.53608 0.282898,-0.60692 0.282896,-0.60692 0.405098,-0.53464 0.405098,-0.53464 0.560209,-0.44799 0.560209,-0.44799 0.389962,-0.22476 0.389962,-0.22476 0.626038,-0.22924 0.626034,-0.22924 4.169834,-0.0283 4.169833,-0.0283 v 1.18974 1.18974 h -3.839172 -3.839079 l -0.493253,0.16971 -0.493254,0.1697 -0.404532,0.25959 -0.404532,0.25959 -0.291051,0.32215 -0.29105,0.32216 -0.212627,0.37039 -0.212627,0.37038 -0.05683,0.1905 -0.05683,0.1905 h 5.297373 5.297372 v 1.18533 1.18534 h -5.291666 -5.291667 v 0.0451 0.0452 l 0.207107,0.40871 0.207108,0.40871 0.435678,0.4767 0.435677,0.4767 0.606048,0.29532 0.606048,0.29532 0.550334,0.0858 0.550333,0.0858 3.4925,6.8e-4 3.4925,6.8e-4 v 1.18533 1.18534 l -3.661833,-0.0103 z m 6.233544,0.0103 h -1.291717 l -0.0426,-0.0689 -0.0426,-0.0689 3.508806,-6.09057 3.50881,-6.09057 h 0.13853 0.13853 l 2.24215,3.89467 2.24216,3.89466 1.25923,2.18967 1.25924,2.18967 -0.0464,0.0752 -0.0465,0.0752 h -4.60434 -4.604341 l -0.04227,-0.0684 -0.04227,-0.0684 0.640915,-1.11694 0.640916,-1.11695 h 1.93901 1.93901 l 0.042,-0.10952 0.042,-0.10953 -1.46285,-2.52914 -1.46285,-2.52913 -0.0794,0.005 -0.0794,0.005 -0.7516,1.30035 -0.7516,1.30035 -1.449445,2.51884 -1.449445,2.51883 h -1.291717 z m 19.864959,-0.0281 -4.52967,0.0143 -0.21898,-0.0667 -0.21899,-0.0667 -0.23039,-0.15096 -0.23039,-0.15096 -0.16446,-0.32236 -0.16446,-0.32236 v -5.63371 -5.6337 h 1.18466 1.18466 l 0.0218,4.97416 0.0218,4.97417 3.96055,0.022 3.96055,0.022 -0.0236,1.16333 -0.0236,1.16333 z m 7.1755,0.009 -1.16417,0.0236 v -6.18306 -6.18305 h 1.18589 1.18588 l -0.0217,6.1595 -0.0217,6.1595 z m 8.52545,-4e-5 -1.10538,0.0235 -0.0588,-0.0588 -0.0588,-0.0588 v -4.93761 -4.93761 l -2.4765,-0.0224 -2.4765,-0.0224 -0.0236,-1.16417 -0.0236,-1.16416 h 6.75461 6.7546 l 0.80518,0.9525 0.80519,0.9525 1.31143,1.58404 1.31144,1.58404 0.0557,0.003 0.0557,0.003 1.29722,-1.54517 1.29722,-1.54517 0.83427,-0.99103 0.83428,-0.99103 1.44075,-0.025 1.44075,-0.025 0.0854,0.053 0.0854,0.053 -1.7648,2.106 -1.7648,2.106 -1.3347,1.59668 -1.3347,1.59668 v 2.44854 2.44855 l -1.16417,-0.0236 -1.16417,-0.0236 -0.0423,-2.48592 -0.0423,-2.48591 -2.07434,-2.48706 -2.07433,-2.48705 -2.51816,-0.001 -2.51815,-10e-4 -0.0218,4.97417 -0.0218,4.97417 z"
         style="fill:#000000;fill-opacity:1;stroke-width:0.0846667" />
    </g>
  </g>
</svg>
