<?xml version="1.0" encoding="utf-8"?>
<svg xmlns="http://www.w3.org/2000/svg" height="48" width="48" viewBox="0 0 48 48">
  <g>
    <path id="path1" transform="rotate(0,24,24) translate(11,11) scale(0.8125,0.8125)  " fill="#FFFFFF" d="M25.700012,16.000016L28.800019,16.000016 28.800019,17.099989 25.700012,17.099989z M23.200012,8.599998L17.200012,16.300004C17.200012,16.500016,17.100006,16.800002,17,17.000014L20.100006,22.50001 15.700012,17.699965C15,17.599989 14.5,17.000014 14.5,16.300004 14.5,15.599991 15,15.000017 15.700012,14.89998L15.800019,14.89998z M15.700012,2.9999971C8.7000124,3.2000091,3.0000002,9.0000224,3,16.000016L6.1000063,16.000016 6.1000063,17.099989 3.1000061,17.099989 3.1000061,17.300002C3.7000124,23.699959,9.1000063,28.79999,15.700012,29.000002L15.800019,29.000002 15.800019,26.000006 16.900025,26.000006 16.900025,29.000002 17.100006,29.000002C23.800019,28.500004 29.100006,22.899971 29.100006,16.099991 29.100006,9.3000092 23.800019,3.7000086 17.100006,3.2000089L16.900025,3.2000089 16.900025,6.2000065 15.800019,6.2000065 15.800019,2.9999971z M16,0C24.800019,0 32,7.2000055 32,16.000016 32,24.799994 24.800019,32 16,32 7.2000124,32 2.3106986E-07,24.799994 0,16.000016 2.3106986E-07,7.2000055 7.2000124,0 16,0z" />
  </g>
</svg>

