<?xml version="1.0" encoding="utf-8"?>
<svg xmlns="http://www.w3.org/2000/svg" height="48" width="48" viewBox="0 0 48 48">
  <g>
    <path id="path1" transform="rotate(0,24,24) translate(11,11.1625006198883) scale(0.8125,0.8125)  " fill="#FFFFFF" d="M1.6000061,18.200001L11.199982,22.599996 8.6000061,24.400015C10.699982,26.200002 13.299988,27.30001 16.100006,27.30001 21.399994,27.30001 26.100006,23.800009 27.199982,18.700002L27.399994,18.300007 32,18.300007 31.799988,19.099996C30.5,26.599998 23.899994,31.599998 16.100006,31.599998 11.699982,31.599998 7.6999817,29.900017 4.6999817,26.900017L2.5,28.400017z M15.899994,0C20.299988,1.8645551E-07,24.299988,1.6999976,27.299988,4.5999921L29.399994,3.000001 30.299988,13.000004 20.699982,9.1999996 23.299988,7.3999956C21.199982,5.5999926 18.600006,4.5999921 15.799988,4.5999921 10.5,4.5999921 5.7999878,8.3000048 4.6999817,13.399998L4.5,14.300007 0,14.300007 0.19998169,13.000004C1.5,5.5000017,8.1999817,1.8645551E-07,15.899994,0z" />
  </g>
</svg>

