<?xml version="1.0" encoding="utf-8"?>
<svg xmlns="http://www.w3.org/2000/svg" height="48" width="48" viewBox="0 0 48 48">
  <g>
    <path id="path1" transform="rotate(0,24,24) translate(11,11) scale(0.8125,0.8125)  " fill="#FFFFFF" d="M14.802396,17.277317C14.272418,17.49431 13.748439,17.697304 13.249459,17.890297 12.02951,18.363281 10.645567,18.899263 10.32358,19.239252 10.046591,19.530243 9.6986055,20.006227 9.6116095,20.618208 9.4326162,21.872166 9.8895979,23.056128 10.30358,23.830101 10.691565,24.551077 11.310539,25.045061 12.00351,25.182056 12.297499,25.241055 12.582487,25.258055 12.851476,25.236055 14.129423,25.127058 15.087384,23.766104 14.984388,22.204155 14.868393,20.452213 14.821395,18.42828 14.802396,17.277317z M23.123713,13.888172C22.64003,13.894121 22.146273,14.036526 21.709705,14.304663 20.156694,15.258704 18.282681,16.020737 17.289675,16.394753 17.695677,16.791771 18.10368,17.203789 18.502684,17.603806 19.49769,18.604851 20.8587,19.974909 21.297703,20.140917 21.651705,20.267921 22.182709,20.383928 22.709713,20.206921 23.825722,19.831903 24.617727,18.886862 25.086731,18.161831 25.537733,17.4608 25.684734,16.628763 25.485733,15.878731 25.401733,15.562717 25.286732,15.272704 25.14373,15.018693 24.759727,14.341664 24.185724,14.072652 23.770721,13.965648 23.561344,13.910957 23.343569,13.885468 23.123713,13.888172z M12.791696,6.7459769C12.116677,6.7459769 11.48966,7.0059776 11.042648,7.4769788 10.824643,7.7069793 10.644638,7.95298 10.505634,8.2079802 9.8486166,9.4219837 10.35463,11.053988 11.635665,11.845989 13.156705,12.786992 14.642744,14.053995 15.422765,14.754997 15.58077,14.035995 15.755774,13.325994 15.919779,12.655992 16.247787,11.322989 16.619797,9.8099842 16.535795,9.3349838 16.463793,8.9269819 16.287788,8.3509808 15.864777,7.9369798 15.006754,7.0949779 13.848723,6.829977 13.028702,6.7569771 12.948699,6.7499771 12.869698,6.7459769 12.791696,6.7459769z M12.693827,4.7469077C12.8634,4.7435346 13.034576,4.7494721 13.206706,4.7649722 14.84975,4.9119725 16.251787,5.515974 17.264814,6.5089765 17.89883,7.1299777 18.327843,7.98698 18.504847,8.9869823 18.654852,9.837985 18.372843,11.054988 17.86183,13.133993 17.809078,13.348743 17.755264,13.567744 17.701309,13.789917L17.625074,14.108792 17.751225,14.055998C18.646019,13.678409 19.732693,13.172019 20.662699,12.600588 21.414143,12.137193 22.270515,11.892647 23.122311,11.887098 23.509489,11.884576 23.895723,11.931434 24.270725,12.029563 25.387733,12.316575 26.314739,13.029607 26.883743,14.034651 27.110744,14.436668 27.291746,14.885688 27.419748,15.368709 27.76075,16.661764 27.522749,18.074827 26.766743,19.245878 25.847736,20.67094 24.664728,21.659983 23.347717,22.103003 22.959715,22.233007 22.553713,22.29701 22.136709,22.29701 21.639706,22.29701 21.128702,22.206007 20.619698,22.021999 19.810692,21.730986 18.800686,20.739943 17.084673,19.013868L16.836042,18.764042 16.840824,18.934555C16.869354,19.921782 16.913279,21.053911 16.980307,22.07316 17.154299,24.714073 15.377373,27.026997 13.020469,27.227989 12.889475,27.239988 12.75748,27.244989 12.623486,27.244989 12.293499,27.244989 11.955513,27.21199 11.614527,27.143991 10.331579,26.888 9.2126255,26.025028 8.5416527,24.77507 7.9856758,23.739105 7.375701,22.127157 7.6306901,20.336216 7.759685,19.437246 8.1896677,18.582273 8.8736391,17.861298 9.5046139,17.19632 10.772561,16.705336 12.52749,16.025358 12.713982,15.953111 12.904161,15.879426 13.096935,15.804132L13.431194,15.672211 13.329084,15.585499C12.57519,14.948748 11.575663,14.160995 10.582637,13.546994 8.4175787,12.205991 7.5945568,9.3839836 8.7475882,7.2549782 8.969594,6.8459773 9.2536011,6.4569764 9.59161,6.0999751 10.398381,5.2503481 11.506818,4.7705188 12.693827,4.7469077z M16,2C8.2800293,2 2,8.2799988 2,16 2,23.720001 8.2800293,30 16,30 23.720093,30 30,23.720001 30,16 30,8.2799988 23.720093,2 16,2z M16,0C24.822021,0 32,7.178009 32,16 32,24.822021 24.822021,32 16,32 7.1779785,32 0,24.822021 0,16 0,7.178009 7.1779785,0 16,0z" />
  </g>
</svg>

