<?xml version="1.0" encoding="utf-8"?>
<svg xmlns="http://www.w3.org/2000/svg" height="48" width="48" viewBox="0 0 48 48">
  <g>
    <path id="path1" transform="rotate(0,24,24) translate(11.7718756198883,11) scale(0.8125,0.8125)  " fill="#FFFFFF" d="M27.200005,26.799988L28,26.799988C29.099998,26.799988,30.099998,27.699997,30.099998,28.899994L30.099998,29.699997C30.099998,30.799988,29.200005,31.799988,28,31.799988L27.200005,31.799988C26.099998,31.799988,25.099998,30.899994,25.099998,29.699997L25.099998,28.899994C25.099998,27.699997,26.099998,26.799988,27.200005,26.799988z M18.900002,1.1999969L23.200005,5.5 23.200005,21.299988 12.5,32 0.30000305,19.799988 9,19.699997 18.700005,19.599991 18.800003,9.8999939z M16.400002,0.8999939L16.400002,9.0999908 16.400002,17.299988 8.2000046,17.299988 0,17.299988 8.2000046,9.0999908z M27.200005,0L28,0C29.099998,0,30.099998,0.8999939,30.099998,2.0999908L30.099998,21.399994C30.099998,22.5,29.200005,23.5,28,23.5L27.200005,23.5C26.099998,23.5,25.099998,22.599991,25.099998,21.399994L25.099998,2.0999908C25.099998,0.8999939,26.099998,0,27.200005,0z" />
  </g>
</svg>

