<?xml version="1.0" encoding="utf-8"?>
<svg xmlns="http://www.w3.org/2000/svg" height="48" width="48" viewBox="0 0 48 48">
  <g>
    <path id="path1" transform="rotate(0,24,24) translate(11.5496736782198,11) scale(0.812525377470123,0.812525377470123)  " fill="#FFFFFF" d="M8.3850632,28.170977L22.365023,28.170977 22.365023,29.534995 8.3850632,29.534995z M8.3850632,23.988984L22.365023,23.988984 22.365023,25.352971 8.3850632,25.352971z M18.597048,1.7099982C19.593046,1.709998,20.406046,2.3839969,20.406046,3.212996L20.406046,7.1719896C20.406046,8.0009887 19.593046,8.6769874 18.597048,8.6769874 17.601049,8.6769874 16.789049,7.9999883 16.789049,7.1719896L16.789049,3.212996C16.789049,2.382997,17.601049,1.709998,18.597048,1.7099982z M6.6630258,0L7.5670175,0 7.5670175,7.8290121C7.5670175,9.7370021,9.0679941,11.285006,10.927003,11.285006L19.670046,11.285006C21.525026,11.285006,23.030031,9.7370021,23.030031,7.8290121L23.030031,0 23.981022,0C27.665043,0,30.647037,3.0800178,30.646,6.8710038L30.646,25.192023C30.646,28.745002,28.022037,31.633004,24.665043,31.992013L24.665043,23.892005C24.665043,22.015996,22.851015,20.500004,20.614016,20.500004L10.082032,20.500004C7.8460092,20.500004,6.0369882,22.015996,6.0369882,23.892005L6.0369882,31.999001C2.6560063,31.670022,6.8299414E-08,28.767005,0,25.194007L0,6.8710038C6.8299414E-08,3.0800178,2.9840092,0,6.6630258,0z" />
  </g>
</svg>

