<?xml version="1.0" encoding="utf-8"?>
<svg xmlns="http://www.w3.org/2000/svg" height="48" width="48" viewBox="0 0 48 48">
  <g>
    <path id="path1" transform="rotate(0,24,24) translate(11,11.0186880737838) scale(0.812499612569994,0.812499612569994)  " fill="#FFFFFF" d="M24.574808,0C25.477812,0,26.379816,0.20100307,27.282821,0.50100708L27.984824,0.80201149 23.471802,5.1150765C23.170801,5.416081,23.0708,5.8170867,23.371802,6.2180929L25.878814,8.7251303C26.078815,8.9261334 26.279816,9.026135 26.479816,9.0261347 26.580817,8.9261334 26.680818,8.9261334 26.780818,8.8261321L30.993838,4.6130691 31.494841,4.7140703C32.497846,7.3211093 31.995843,10.230153 30.090834,12.135181 28.485826,13.740206 26.179815,14.542217 23.872804,14.04121 23.671803,14.241213 14.144758,23.769356 13.943757,23.969358 14.445759,26.276393 13.642756,28.583427 12.038748,30.187452 10.132739,32.093481 7.8267279,32.394485 5.2187157,31.39147L4.8177137,31.190466C4.7177134,31.190466,4.6167126,31.090466,4.5167122,31.090466L8.6287317,27.078405C9.0297337,26.677399,9.0297337,25.975389,8.6287317,25.574383L6.3217211,23.067345C6.0207195,22.966344,5.6197176,23.267348,5.318716,23.568353L1.2066956,27.780416 0.50469208,27.479411C-0.49731255,24.872372 0.0036907196,21.963328 1.9097004,20.0583 3.5137072,18.453276 5.8207178,17.852267 8.126729,18.253273 8.2277298,18.152272 17.955776,8.3241243 18.155777,8.1231215 17.654775,5.8170867 18.256778,3.5100527 19.860785,1.9050283 21.164791,0.70201015 22.769799,0 24.574808,0z" />
  </g>
</svg>

