<?xml version="1.0" encoding="utf-8"?>
<svg xmlns="http://www.w3.org/2000/svg" height="48" width="48" viewBox="0 0 48 48">
  <g>
    <path id="path1" transform="rotate(0,24,24) translate(11,12.5534997582436) scale(0.8125,0.8125)  " fill="#FFFFFF" d="M7.9500122,0L9.6599731,0 11.572021,3.2200022 13.182007,0.401978 14.893005,0.401978 15.697998,1.9119878 13.182007,6.2389849 16,11.069003 18.817993,6.2389849 16.302002,1.9119878 17.106995,0.401978 18.817993,0.401978 20.427979,3.2200022 22.339966,0 24.049988,0 24.85498,1.5090032 22.942993,4.7290051 26.263977,4.7290051 27.06897,6.2389849 26.263977,7.747988 21.333008,7.747988 18.515991,12.578983 24.049988,12.578983 26.565979,8.2509783 28.276978,8.2509783 29.08197,9.760989 27.471985,12.578983 31.195007,12.578983 32,14.087986 31.195007,15.596988 27.471985,15.596988 29.08197,18.414983 28.276978,19.923985 26.565979,19.923985 24.049988,15.596988 18.515991,15.596988 21.333008,20.427983 26.263977,20.427983 27.06897,21.936986 26.263977,23.446997 22.942993,23.446997 24.85498,26.666999 24.049988,28.176001 22.339966,28.176001 20.427979,24.956 18.817993,27.773993 17.106995,27.773993 16.302002,26.263984 18.817993,21.936986 16,17.106999 13.182007,21.936986 15.697998,26.263984 14.893005,27.773993 13.182007,27.773993 11.572021,24.956 9.6599731,28.176001 7.9500122,28.176001 7.1450195,26.666999 9.0570068,23.446997 5.7359619,23.446997 4.9309692,21.936986 5.7359619,20.427983 10.666992,20.427983 13.484009,15.596988 7.9500122,15.596988 5.434021,19.923985 3.7229614,19.923985 2.9179688,18.414983 4.5280151,15.596988 0.80499268,15.596988 0,14.087986 0.80499268,12.578983 4.5280151,12.578983 2.9179688,9.760989 3.7229614,8.2509783 5.434021,8.2509783 7.9500122,12.578983 13.484009,12.578983 10.666992,7.747988 5.7359619,7.747988 4.9309692,6.2389849 5.7359619,4.7290051 9.0570068,4.7290051 7.1450195,1.5090032z" />
  </g>
</svg>

