<?xml version="1.0" encoding="utf-8"?>
<svg xmlns="http://www.w3.org/2000/svg" height="48" width="48" viewBox="0 0 48 48">
  <g>
    <path id="path1" transform="rotate(0,24,24) translate(11,11.0003975035892) scale(0.812500435859199,0.812500435859199)  " fill="#FFFFFF" d="M15.999978,12.934C17.69297,12.934 19.064963,14.305999 19.064963,15.998998 19.064963,17.691997 17.69297,19.063995 15.999978,19.063995 14.307985,19.063995 12.935992,17.691997 12.935992,15.998998 12.935992,14.305999 14.307985,12.934 15.999978,12.934z M15.999983,10.498999C12.967983,10.498999 10.499983,12.965998 10.499983,15.998998 10.499983,19.031998 12.967983,21.498998 15.999983,21.498998 19.031983,21.498998 21.499983,19.031998 21.499983,15.998998 21.499983,12.965998 19.031983,10.498999 15.999983,10.498999z M15.999983,8.4989986C20.135983,8.4989986 23.499983,11.862998 23.499983,15.998998 23.499983,20.134998 20.135983,23.498998 15.999983,23.498998 11.863983,23.498998 8.4999828,20.134998 8.4999828,15.998998 8.4999828,11.862998 11.863983,8.4989986 15.999983,8.4989986z M15.999983,5.9989986C10.485983,5.9989986 5.9999828,10.484999 5.9999828,15.998998 5.9999828,21.512998 10.485983,25.998998 15.999983,25.998998 21.513983,25.998998 25.999983,21.512998 25.999983,15.998998 25.999983,10.484999 21.513983,5.9989986 15.999983,5.9989986z M15.999983,0C16.552983,0,16.999983,0.44799995,16.999983,1L16.999983,4.0411167 17.149583,4.053606C22.825688,4.59552,27.360765,9.1078777,27.937914,14.773784L27.957974,14.998998 30.999985,14.998998C31.552984,14.998998 31.999983,15.446998 31.999983,15.998998 31.999983,16.550998 31.552984,16.998998 30.999985,16.998998L27.957865,16.998998 27.945374,17.148598C27.403461,22.824703,22.891103,27.359779,17.225197,27.936929L16.999983,27.956989 16.999983,30.999004C16.999983,31.551006 16.552961,31.999005 15.999983,31.999005 15.447004,31.999005 14.999983,31.551006 14.999983,30.999004L14.999983,27.956989 14.774769,27.936929C9.1088619,27.359779,4.5965033,22.824703,4.0545912,17.148598L4.0421009,16.998998 0.99999714,16.998998C0.4469986,16.998998 0,16.550998 0,15.998998 0,15.446998 0.4469986,14.998998 0.99999714,14.998998L4.0419903,14.998998 4.0620518,14.773785C4.6392012,9.1078777,9.1742773,4.59552,14.850382,4.053606L14.999983,4.0411167 14.999983,1C14.999983,0.44799995,15.446983,0,15.999983,0z" />
  </g>
</svg>

