<?xml version="1.0" encoding="utf-8"?>
<svg xmlns="http://www.w3.org/2000/svg" height="48" width="48" viewBox="0 0 48 48">
  <g>
    <path id="path1" transform="rotate(0,24,24) translate(17.5,11) scale(0.8125,0.8125)  " fill="#FFFFFF" d="M8,5C8.552,5,9,5.448,9,6L9,22.091705 9.0839787,22.130606C9.9219227,22.544302 10.5,23.422684 10.5,24.438997 10.5,25.852999 9.3809996,27 8,27 6.619,27 5.5,25.852999 5.5,24.438997 5.5,23.422684 6.0780773,22.544302 6.9160209,22.130606L7,22.091705 7,6C7,5.448,7.448,5,8,5z M7.8910217,2C6.2430115,2,4.9990234,3.2339935,4.9990234,4.8710022L4.9990234,19.052994 4.5570068,19.444C2.9320068,20.533997 2,22.263 2,24.186996 2,27.391998 4.7019958,30 8.0230103,30 11.375,30 14,27.445999 14,24.186996 14,22.164993 13.100006,20.481995 11.466003,19.449005L11,19.154007 11,4.8710022C11,3.3139954,9.5760193,2,7.8910217,2z M7.8910217,0C10.708008,0,13,2.1849976,13,4.8710022L13,18.076996C14.914001,19.492996 16,21.688995 16,24.186996 16,28.494995 12.421997,32 8.0230103,32 3.598999,32 0,28.494995 0,24.186996 0,21.804001 1.1119995,19.567993 3,18.102997L2.9990234,4.8710022C2.9990234,2.1399994,5.1480103,0,7.8910217,0z" />
  </g>
</svg>

