<?xml version="1.0" encoding="utf-8"?>
<svg xmlns="http://www.w3.org/2000/svg" height="48" width="48" viewBox="0 0 48 48">
  <g>
    <path id="path1" transform="rotate(0,24,24) translate(15.0629161000252,11) scale(0.8125,0.8125)  " fill="#FFFFFF" d="M15.003009,15.000008L18.998976,15.000008 18.998976,17.000008 15.003009,17.000008z M15.003009,11.000008L21.998976,11.000008 21.998976,13.000008 15.003009,13.000008z M15.003009,7.0000076L18.998976,7.0000076 18.998976,9.0000076 15.003009,9.0000076z M8.0010233,4.9999857C8.5540237,4.9999857,9.0010233,5.4469857,9.0010233,5.9999862L9.0010233,22.091722 9.0849628,22.130604C9.9229069,22.544302 10.500984,23.422686 10.500984,24.439003 10.500984,25.853008 9.3819847,27.000013 8.0009842,27.000013 6.6199846,27.000013 5.5009847,25.853008 5.5009847,24.439003 5.5009847,23.422686 6.079062,22.544302 6.9170055,22.130604L7.0010233,22.091686 7.0010233,5.9999862C7.0010233,5.4469857,7.4480233,4.9999857,8.0010233,4.9999857z M15.003009,3.0000076L21.998976,3.0000076 21.998976,5.0000076 15.003009,5.0000076z M7.8909912,2C6.2440186,2,5,3.2330017,5,4.8700256L5,19.054016 4.5579834,19.443024C2.9320068,20.534027 2,22.264008 2,24.187012 2,27.393005 4.7030029,30 8.0239868,30 11.375,30 14,27.446014 14,24.187012 14,22.165009 13.099976,20.482025 11.466003,19.447998L11,19.154022 11,4.8700256C11,3.3140259,9.5769653,2,7.8909912,2z M7.8909912,0C10.708008,0,13,2.1850281,13,4.8700256L13,18.077026C14.914001,19.494019 16,21.690002 16,24.187012 16,28.495026 12.421997,32 8.0239868,32 3.5999756,32 0,28.495026 0,24.187012 0,21.805023 1.1129761,19.568024 3,18.103027L3,4.8700256C3,2.1400146,5.1489868,0,7.8909912,0z" />
  </g>
</svg>

