<?xml version="1.0" encoding="utf-8"?>
<svg xmlns="http://www.w3.org/2000/svg" height="48" width="48" viewBox="0 0 48 48">
  <g>
    <path id="path1" transform="rotate(0,24,24) translate(12.6566871404648,11) scale(0.8125,0.8125)  " fill="#FFFFFF" d="M1.0010376,10.507996C1.3020022,10.507996,1.60199,10.608002,1.9020385,10.807999L12.210024,17.212997C13.211,17.813995,14.812014,17.813995,15.81299,17.212997L26.121037,10.807999C27.122013,10.208,27.922001,10.608002,27.922001,11.808998L27.922001,23.417999C27.922001,24.618996,27.022037,26.019997,26.021,26.520996L15.913027,31.625C14.911989,32.125,13.111025,32.125,12.109987,31.625L1.9020385,26.119995C0.90100113,25.519997,2.8925569E-08,24.118996,0,23.017998L0,11.709C2.8925569E-08,10.908997,0.40100107,10.507996,1.0010376,10.507996z M13.411013,0C14.112001,0,14.812014,0.099998474,15.312014,0.40000153L25.721012,5.9049988C26.721012,6.4049988,26.820988,7.4059982,25.820988,8.0059967L15.913027,14.011002C14.911989,14.611,13.311037,14.611,12.309999,14.011002L2.2020263,8.0059967C1.200989,7.4059982,1.200989,6.4049988,2.2020263,5.8050003L11.510011,0.5C12.010012,0.19999695,12.710024,0,13.411013,0z" />
  </g>
</svg>

