<?xml version="1.0" encoding="utf-8"?>
<svg xmlns="http://www.w3.org/2000/svg" height="48" width="48" viewBox="0 0 48 48">
  <g>
    <path id="path1" transform="rotate(0,24,24) translate(11,11) scale(0.8125,0.8125)  " fill="#FFFFFF" d="M27.300003,14.899994C27.899994,14.899994 28.300003,15.300003 28.300003,15.899994 28.300003,16.5 27.899994,16.899994 27.300003,16.899994 26.699997,16.899994 26.300003,16.5 26.300003,15.899994 26.300003,15.300003 26.800003,14.899994 27.300003,14.899994z M4.8000031,14.899994C5.3999939,14.899994 5.8000031,15.300003 5.8000031,15.899994 5.8000031,16.5 5.3999939,16.899994 4.8000031,16.899994 4.1999969,16.899994 3.8000031,16.5 3.8000031,15.899994 3.8000031,15.300003 4.3000031,14.899994 4.8000031,14.899994z M16.099991,14.800003C16.699997,14.800003 17.199997,15.300003 17.199997,15.899994 17.199997,16.5 16.699997,17 16.099991,17 15.5,17 15,16.5 15,15.899994 15,15.300003 15.5,14.800003 16.099991,14.800003z M16.099991,14.300003C15.199997,14.300003 14.5,15 14.5,15.899994 14.5,16.800003 15.199997,17.5 16.099991,17.5 17,17.5 17.699997,16.800003 17.699997,15.899994 17.699997,15 17,14.300003 16.099991,14.300003z M5.8999939,9.5999908C6.5,9.5999908 6.8999939,10 6.8999939,10.599991 6.8999939,11.199997 6.5,11.599991 5.8999939,11.599991 5.3000031,11.599991 4.8999939,11.199997 4.8999939,10.599991 4.8999939,10.099991 5.3999939,9.5999908 5.8999939,9.5999908z M25.699997,8.8999939C26.300003,8.8999939 26.699997,9.3000031 26.699997,9.8999939 26.699997,10.5 26.300003,10.899994 25.699997,10.899994 25.099991,10.899994 24.699997,10.5 24.699997,9.8999939 24.699997,9.3999939 25.099991,8.8999939 25.699997,8.8999939z M16.099991,7.3999939L18.800003,16.899994 16.099991,19.5 13.399994,17z M22,5.3000031C22.599991,5.3000031 23,5.6999969 23,6.3000031 23,6.8999939 22.599991,7.3000031 22,7.3000031 21.399994,7.3000031 21,6.8999939 21,6.3000031 21,5.6999969 21.5,5.3000031 22,5.3000031z M10.099991,5.3000031C10.699997,5.3000031 11.099991,5.6999969 11.099991,6.3000031 11.099991,6.8999939 10.699997,7.3000031 10.099991,7.3000031 9.5,7.3000031 9.0999908,6.8999939 9.0999908,6.3000031 9.0999908,5.6999969 9.5999908,5.3000031 10.099991,5.3000031z M16.099991,3.6999969C16.699997,3.6999969 17.099991,4.0999908 17.099991,4.6999969 17.099991,5.3000031 16.699997,5.6999969 16.099991,5.6999969 15.5,5.6999969 15.099991,5.3000031 15.099991,4.6999969 15.099991,4.0999908 15.5,3.6999969 16.099991,3.6999969z M16,2.5999908C8.5999908,2.5999908 2.5999908,8.5999908 2.5999908,16 2.5999908,23.399994 8.5999908,29.399994 16,29.399994 23.399994,29.399994 29.399994,23.399994 29.399994,16 29.399994,8.5999908 23.399994,2.5999908 16,2.5999908z M16,0C24.800003,0 32,7.1999969 32,16 32,24.800003 24.800003,32 16,32 7.1999969,32 0,24.800003 0,16 0,7.1999969 7.1999969,0 16,0z" />
  </g>
</svg>

